<svg width="142" height="80" viewBox="0 0 142 80" fill="none" xmlns="http://www.w3.org/2000/svg">
<path fill-rule="evenodd" clip-rule="evenodd" d="M79.7736 0H56V5.00497H74.7687V23.7736H79.7736V0Z" fill="#23233B"/>
<path d="M34 34H46L34 46V34Z" fill="#23233B"/>
<path d="M71.6081 57.0394H64.5716C64.4431 56.1305 64.1807 55.3233 63.7844 54.6176C63.3881 53.9012 62.8794 53.2917 62.2582 52.7892C61.637 52.2866 60.9194 51.9017 60.1055 51.6344C59.3022 51.3671 58.4293 51.2334 57.4868 51.2334C55.7839 51.2334 54.3006 51.6558 53.0368 52.5005C51.773 53.3345 50.793 54.5534 50.0968 56.1573C49.4007 57.7504 49.0526 59.6858 49.0526 61.9632C49.0526 64.3049 49.4007 66.2723 50.0968 67.8655C50.8037 69.4586 51.789 70.6615 53.0528 71.4741C54.3166 72.2868 55.7786 72.6931 57.4386 72.6931C58.3704 72.6931 59.2326 72.5701 60.0251 72.3242C60.8284 72.0783 61.5406 71.7201 62.1618 71.2496C62.783 70.7684 63.2971 70.1857 63.7041 69.5014C64.1217 68.8171 64.4109 68.0365 64.5716 67.1598L71.6081 67.1918C71.4261 68.6995 70.9709 70.1536 70.2426 71.5543C69.525 72.9443 68.5557 74.19 67.3348 75.2913C66.1245 76.382 64.6787 77.248 62.9972 77.8896C61.3264 78.5204 59.4361 78.8359 57.3262 78.8359C54.3916 78.8359 51.7676 78.1729 49.4542 76.8471C47.1516 75.5212 45.3308 73.6019 43.9921 71.0892C42.664 68.5765 42 65.5345 42 61.9632C42 58.3813 42.6747 55.334 44.0242 52.8212C45.3737 50.3085 47.2051 48.3946 49.5185 47.0794C51.8319 45.7536 54.4344 45.0906 57.3262 45.0906C59.2326 45.0906 60.9998 45.3579 62.6277 45.8926C64.2663 46.4272 65.7176 47.2077 66.9814 48.2342C68.2451 49.25 69.2733 50.4956 70.0659 51.9712C70.8691 53.4467 71.3832 55.1361 71.6081 57.0394Z" fill="#FF9E2D"/>
<path d="M83.5044 78.8519C81.93 78.8519 80.527 78.5792 79.2953 78.0339C78.0636 77.4779 77.089 76.66 76.3714 75.58C75.6646 74.4894 75.3111 73.1315 75.3111 71.5062C75.3111 70.1376 75.5628 68.9882 76.0662 68.0579C76.5696 67.1277 77.255 66.3792 78.1226 65.8125C78.9901 65.2458 79.9754 64.8181 81.0785 64.5294C82.1924 64.2407 83.3598 64.0376 84.5807 63.92C86.0159 63.7703 87.1726 63.6313 88.0508 63.503C88.9291 63.364 89.5663 63.1608 89.9626 62.8935C90.3589 62.6262 90.557 62.2306 90.557 61.7066V61.6104C90.557 60.5946 90.2357 59.8087 89.5931 59.2527C88.9612 58.6967 88.0615 58.4187 86.8941 58.4187C85.6625 58.4187 84.6825 58.6914 83.9542 59.2367C83.2259 59.7713 82.744 60.4449 82.5083 61.2575L76.1787 60.7443C76.5 59.2474 77.1319 57.9536 78.0744 56.863C79.0168 55.7616 80.2324 54.9169 81.7212 54.3289C83.2206 53.7301 84.9556 53.4307 86.9263 53.4307C88.2972 53.4307 89.6091 53.5911 90.8622 53.9119C92.126 54.2326 93.2452 54.7298 94.2199 55.4035C95.2052 56.0771 95.9817 56.9432 96.5493 58.0017C97.1169 59.0496 97.4008 60.3059 97.4008 61.7708V78.3868H90.9104V74.9706H90.7176C90.3214 75.7404 89.7912 76.4194 89.1272 77.0075C88.4632 77.5849 87.6653 78.0393 86.7335 78.3707C85.8017 78.6915 84.7253 78.8519 83.5044 78.8519ZM85.4643 74.1366C86.4711 74.1366 87.36 73.9387 88.1311 73.5431C88.9023 73.1368 89.5074 72.5915 89.9465 71.9072C90.3856 71.2229 90.6052 70.4477 90.6052 69.5816V66.9673C90.391 67.1063 90.0965 67.2346 89.7216 67.3522C89.3575 67.4591 88.9451 67.5607 88.4846 67.657C88.0241 67.7425 87.5635 67.8227 87.103 67.8975C86.6424 67.9617 86.2248 68.0205 85.8499 68.074C85.0466 68.1916 84.3451 68.3787 83.7454 68.6353C83.1456 68.8919 82.6797 69.2394 82.3477 69.6778C82.0157 70.1055 81.8497 70.6401 81.8497 71.2817C81.8497 72.2119 82.187 72.923 82.8618 73.4148C83.5472 73.896 84.4147 74.1366 85.4643 74.1366Z" fill="#FF9E2D"/>
<path d="M115.98 53.7515V58.8838H100.75V53.7515H115.98ZM104.236 78.3868V51.9712C104.236 50.1856 104.585 48.7047 105.281 47.5285C105.988 46.3523 106.952 45.4702 108.172 44.8821C109.393 44.294 110.78 44 112.333 44C113.383 44 114.341 44.0802 115.209 44.2406C116.087 44.401 116.741 44.5453 117.169 44.6736L115.948 49.806C115.68 49.7204 115.348 49.6402 114.952 49.5654C114.566 49.4906 114.17 49.4531 113.763 49.4531C112.756 49.4531 112.055 49.6884 111.659 50.1588C111.262 50.6186 111.064 51.2655 111.064 52.0995V78.3868H104.236Z" fill="#FF9E2D"/>
<path d="M130.523 78.8679C127.985 78.8679 125.8 78.3547 123.969 77.3282C122.148 76.2911 120.745 74.8262 119.759 72.9337C118.774 71.0304 118.281 68.7797 118.281 66.1814C118.281 63.6473 118.774 61.4233 119.759 59.5093C120.745 57.5954 122.132 56.1038 123.92 55.0346C125.72 53.9653 127.83 53.4307 130.25 53.4307C131.878 53.4307 133.393 53.6927 134.796 54.2166C136.21 54.7298 137.442 55.505 138.491 56.5422C139.552 57.5794 140.376 58.8838 140.965 60.4556C141.555 62.0167 141.849 63.8451 141.849 65.9408V67.8173H121.013V63.5831H135.407C135.407 62.5994 135.193 61.728 134.764 60.9689C134.336 60.2097 133.742 59.6163 132.981 59.1886C132.231 58.7502 131.359 58.531 130.362 58.531C129.324 58.531 128.403 58.7716 127.599 59.2527C126.807 59.7232 126.186 60.3594 125.736 61.1613C125.286 61.9526 125.056 62.8347 125.045 63.8077V67.8334C125.045 69.0523 125.27 70.1055 125.72 70.993C126.18 71.8805 126.828 72.5648 127.664 73.0459C128.499 73.5271 129.49 73.7677 130.636 73.7677C131.396 73.7677 132.092 73.6607 132.724 73.4469C133.356 73.233 133.897 72.9123 134.347 72.4846C134.796 72.0569 135.139 71.5329 135.375 70.9128L141.705 71.3298C141.383 72.8481 140.725 74.174 139.728 75.3074C138.743 76.4301 137.469 77.3068 135.905 77.9377C134.352 78.5579 132.558 78.8679 130.523 78.8679Z" fill="#FF9E2D"/>
<path fill-rule="evenodd" clip-rule="evenodd" d="M0 0H23.7736V5.33863H5.00497V25.3585H0V0Z" fill="#23233B"/>
<path fill-rule="evenodd" clip-rule="evenodd" d="M12 12H30V30H12V12ZM68 12H50V30H68V12ZM62.6002 17.3999H55.4002V24.5999H62.6002V17.3999ZM24.6003 17.3998H17.4003V24.5998H24.6003V17.3998ZM12 50H30V68H12V50ZM24.6003 55.3998H17.4003V62.5998H24.6003V55.3998Z" fill="#23233B"/>
<path fill-rule="evenodd" clip-rule="evenodd" d="M0 80H25.3585V74.6614H5.33863V54.6415H0V80Z" fill="#23233B"/>
</svg>
