<svg width="358" height="326" viewBox="0 0 358 326" fill="none" xmlns="http://www.w3.org/2000/svg">
<g clip-path="url(#clip0_705_1851)">
<rect width="358" height="326" rx="22" fill="#FF9E2D"/>
<path fill-rule="evenodd" clip-rule="evenodd" d="M282.897 101.86L285.43 85.2803L270.214 92.3349C250.204 101.613 223.545 103.809 197.503 102.352C171.655 100.905 147.577 95.9334 133.505 91.8557L126.03 89.6897L122.808 96.7732C114.242 115.602 97.0804 146.526 73.702 177.377C50.2658 208.303 21.0712 238.503 -11.3904 256.644L-2.6096 272.357C32.9288 252.497 63.9009 220.113 88.0481 188.248C109.627 159.773 126.145 131.191 135.924 111.149C151.334 115.035 173.228 119.021 196.497 120.323C218.078 121.531 241.59 120.478 262.381 114.395C256.385 144.119 244.542 184.383 225.627 223.045C202.871 269.554 170.541 312.401 127.161 332.86L134.839 349.14C180.662 327.529 214.039 284.615 237.397 239.677C242.671 242.058 248.467 243.583 254.329 244.533C264.043 246.107 274.721 246.226 285.182 245.543C298.883 244.649 312.705 242.344 324.334 239.767C308.635 283.725 280.028 337.016 266.244 360.435L281.756 369.565C297.321 343.122 332.299 277.869 346.628 229.559L351.332 213.703L335.463 218.365C323.183 221.973 303.318 226.322 284.01 227.582C274.362 228.211 265.138 228.049 257.208 226.764C252.555 226.01 248.598 224.909 245.347 223.511C266.419 178.206 278.308 131.885 282.897 101.86ZM146.81 184.433C158.368 187.075 187.35 190.331 211.405 181.614L206.635 168.452C186.181 175.864 160.26 173.146 149.929 170.785L146.81 184.433ZM108.341 229.387C122.652 232.26 159.568 233.223 198.697 215.944L193.042 203.137C156.75 219.163 122.793 218.009 111.096 215.661L108.341 229.387ZM66.2715 263.48C82.9551 267.684 124.936 272.768 160.513 259.031L155.471 245.971C123.665 258.251 84.9393 253.746 69.6925 249.904L66.2715 263.48Z" fill="#F2F2F2"/>
</g>
<defs>
<clipPath id="clip0_705_1851">
<rect width="358" height="326" rx="22" fill="white"/>
</clipPath>
</defs>
</svg>
