<svg width="307" height="274" viewBox="0 0 307 274" fill="none" xmlns="http://www.w3.org/2000/svg">
<path d="M265.25 262.364H170.705V242.364H265.25C273.977 242.364 281.189 240.848 286.886 237.818C292.583 234.727 296.826 230.545 299.614 225.273C302.402 219.939 303.795 213.879 303.795 207.091C303.795 200.303 302.402 194.273 299.614 189C296.826 183.667 292.583 179.485 286.886 176.455C281.189 173.364 273.977 171.818 265.25 171.818H222.705V338H200.159V151.818H265.25C279.068 151.818 290.462 154.333 299.432 159.364C308.402 164.394 315.068 171.091 319.432 179.455C323.795 187.818 325.977 197.03 325.977 207.091C325.977 217.152 323.795 226.364 319.432 234.727C315.068 243.091 308.402 249.788 299.432 254.818C290.462 259.848 279.068 262.364 265.25 262.364ZM263.795 279.818V299.818H170.705V279.818H263.795Z" fill="#F2F2F2"/>
<path d="M13.1455 273.5C12.3878 265.769 12 257.93 12 250C12 118.556 118.556 12 250 12C268.931 12 287.346 14.2102 305 18.3868" stroke="#F2F2F2" stroke-width="23"/>
</svg>
