<svg width="30" height="30" viewBox="0 0 30 30" fill="none" xmlns="http://www.w3.org/2000/svg">
<path d="M0 5.41667C0 3.98008 0.570683 2.60233 1.5865 1.5865C2.60233 0.570683 3.98008 0 5.41667 0H8.75C9.08152 0 9.39946 0.131696 9.63388 0.366116C9.8683 0.600537 10 0.918479 10 1.25C10 1.58152 9.8683 1.89946 9.63388 2.13388C9.39946 2.3683 9.08152 2.5 8.75 2.5H5.41667C4.64312 2.5 3.90125 2.80729 3.35427 3.35427C2.80729 3.90125 2.5 4.64312 2.5 5.41667V8.75C2.5 9.08152 2.3683 9.39946 2.13388 9.63388C1.89946 9.8683 1.58152 10 1.25 10C0.918479 10 0.600537 9.8683 0.366116 9.63388C0.131696 9.39946 0 9.08152 0 8.75V5.41667ZM20 1.25C20 0.918479 20.1317 0.600537 20.3661 0.366116C20.6005 0.131696 20.9185 0 21.25 0H24.5833C26.0199 0 27.3977 0.570683 28.4135 1.5865C29.4293 2.60233 30 3.98008 30 5.41667V8.75C30 9.08152 29.8683 9.39946 29.6339 9.63388C29.3995 9.8683 29.0815 10 28.75 10C28.4185 10 28.1005 9.8683 27.8661 9.63388C27.6317 9.39946 27.5 9.08152 27.5 8.75V5.41667C27.5 4.64312 27.1927 3.90125 26.6457 3.35427C26.0987 2.80729 25.3569 2.5 24.5833 2.5H21.25C20.9185 2.5 20.6005 2.3683 20.3661 2.13388C20.1317 1.89946 20 1.58152 20 1.25ZM1.25 20C1.58152 20 1.89946 20.1317 2.13388 20.3661C2.3683 20.6005 2.5 20.9185 2.5 21.25V24.5833C2.5 26.1933 3.80667 27.5 5.41667 27.5H8.75C9.08152 27.5 9.39946 27.6317 9.63388 27.8661C9.8683 28.1005 10 28.4185 10 28.75C10 29.0815 9.8683 29.3995 9.63388 29.6339C9.39946 29.8683 9.08152 30 8.75 30H5.41667C3.98008 30 2.60233 29.4293 1.5865 28.4135C0.570683 27.3977 0 26.0199 0 24.5833V21.25C0 20.9185 0.131696 20.6005 0.366116 20.3661C0.600537 20.1317 0.918479 20 1.25 20ZM28.75 20C29.0815 20 29.3995 20.1317 29.6339 20.3661C29.8683 20.6005 30 20.9185 30 21.25V24.5833C30 26.0199 29.4293 27.3977 28.4135 28.4135C27.3977 29.4293 26.0199 30 24.5833 30H21.25C20.9185 30 20.6005 29.8683 20.3661 29.6339C20.1317 29.3995 20 29.0815 20 28.75C20 28.4185 20.1317 28.1005 20.3661 27.8661C20.6005 27.6317 20.9185 27.5 21.25 27.5H24.5833C25.3569 27.5 26.0987 27.1927 26.6457 26.6457C27.1927 26.0987 27.5 25.3569 27.5 24.5833V21.25C27.5 20.9185 27.6317 20.6005 27.8661 20.3661C28.1005 20.1317 28.4185 20 28.75 20ZM11.6667 6.66667H6.66667V11.6667H11.6667V18.3333H6.66667V23.3333H11.6667V18.3333H18.3333V23.3333H23.3333V18.3333H18.3333V11.6667H23.3333V6.66667H18.3333V11.6667H11.6667V6.66667Z" fill="#23233B"/>
</svg>
