<svg width="358" height="326" viewBox="0 0 358 326" fill="none" xmlns="http://www.w3.org/2000/svg">
<g clip-path="url(#clip0_705_1844)">
<rect width="358" height="326" rx="22" fill="#FF9E2D"/>
<path fill-rule="evenodd" clip-rule="evenodd" d="M342.785 -7.88317C333.454 -1.89189 319.604 9.98685 300.763 32.009C289.655 44.9924 289.469 51.622 290.96 56.2307C291.905 59.154 293.888 62.3945 297.236 66.4993C299.74 69.57 302.621 72.6774 305.955 76.2738C307.148 77.561 308.399 78.9109 309.712 80.3443C319.427 90.9495 330.978 104.516 339.413 124.099C347.869 143.735 352.969 168.869 350.775 202.527C348.535 236.904 336.239 261.763 318.014 278.627C299.939 295.353 276.82 303.491 254.033 306.063C231.257 308.633 208.244 305.719 189.606 299.753C180.278 296.767 171.822 292.946 164.941 288.483C158.188 284.105 152.284 278.676 149.029 272.19C146.986 268.12 145.838 263.895 145.406 259.664C101.055 252.188 48.4051 223.675 36.2188 169.41L53.7813 165.466C63.6095 209.23 107.141 234.755 147.451 241.76C149.719 234.557 153.517 227.754 157.983 221.825C164.312 213.423 172.451 206.144 180.867 201.469C188.93 196.989 199.074 193.939 208.33 197.37C218.553 201.158 223.628 211.121 224.615 223.614C225.218 231.253 223.135 238.149 218.81 243.844C214.605 249.381 208.633 253.342 202.017 256.078C191.506 260.425 178.243 262.16 164.096 261.618C164.371 262.476 164.711 263.309 165.116 264.115C166.366 266.605 169.35 269.889 174.734 273.381C179.989 276.789 186.92 279.994 195.094 282.61C211.461 287.849 231.918 290.444 252.014 288.176C272.099 285.91 291.253 278.866 305.789 265.415C320.176 252.103 330.83 231.791 332.813 201.357C334.844 170.204 330.088 147.953 322.881 131.219C315.652 114.434 305.732 102.647 296.439 92.5029C295.332 91.294 294.208 90.0822 293.087 88.8723C289.627 85.1412 286.184 81.4283 283.287 77.8762C279.397 73.1073 275.792 67.8238 273.834 61.7714C269.517 48.4287 274.258 35.3001 287.086 20.3073C306.541 -2.43254 321.694 -15.7324 333.06 -23.0298C338.735 -26.6735 343.747 -29.0042 348.103 -30.1494C352.114 -31.2037 357.079 -31.6375 361.349 -29.2809L352.651 -13.522C353.419 -13.098 353.965 -13.0152 354.135 -13.002C353.986 -12.9993 353.53 -12.9645 352.68 -12.7409C350.717 -12.225 347.458 -10.8838 342.785 -7.88317ZM354.191 -13.0004C354.19 -12.9996 354.171 -12.9992 354.135 -13.002C354.173 -13.0027 354.191 -13.0013 354.191 -13.0004ZM165.911 243.67C177.747 244.007 187.88 242.446 195.138 239.444C199.743 237.54 202.736 235.248 204.475 232.958C206.092 230.828 206.931 228.325 206.671 225.032C205.967 216.132 203.035 214.604 202.075 214.248C200.15 213.535 195.936 213.688 189.609 217.203C183.634 220.523 177.349 226.032 172.361 232.654C169.656 236.246 167.468 239.981 165.911 243.67Z" fill="#F2F2F2"/>
</g>
<defs>
<clipPath id="clip0_705_1844">
<rect width="358" height="326" rx="22" fill="white"/>
</clipPath>
</defs>
</svg>
